<?xml version="1.0" encoding="UTF-8"?>
<svg id="Ebene_2" data-name="Ebene 2" xmlns="http://www.w3.org/2000/svg" viewBox="0 0 873.83 504.16">
  <defs>
    <style>
      .cls-1, .cls-2, .cls-3 {
        fill: #fff;
      }

      .cls-4 {
        fill: #009f90;
      }

      .cls-5, .cls-6, .cls-7 {
        fill: #d84178;
      }

      .cls-2, .cls-3, .cls-6, .cls-7 {
        stroke-miterlimit: 3.86;
        stroke-width: 4.36px;
      }

      .cls-2, .cls-7 {
        stroke: #009f90;
      }

      .cls-3, .cls-6 {
        stroke: #fff;
      }
    </style>
  </defs>
  <g id="Ebene_1-2" data-name="Ebene 1">
    <g>
      <path class="cls-5" d="m52.18,469.17l2.04-2.04,12.9,2.04h-14.94Z"/>
      <polygon class="cls-1" points="120.31 261.79 123.71 258.4 125.07 259.76 120.31 261.79 120.31 261.79"/>
      <path class="cls-1" d="m844.25,294.39c-4.75,2.04-12.9,3.4-16.3-2.04-2.04.68,13.58-1.36,16.3,2.04h0Z"/>
      <polygon points="385.85 329.71 377.7 326.99 383.13 326.99 385.85 329.71 385.85 329.71"/>
      <polygon class="cls-1" points="304.35 344.65 306.39 343.29 314.54 344.65 304.35 344.65 304.35 344.65"/>
      <path class="cls-1" d="m81.6,408.48c-3.4-6.11,7.47-2.04,10.87-3.4-2.72,6.11-12.9,2.04-19.02,3.4l1.36-3.4,6.79,3.4h0Z"/>
      <polygon class="cls-1" points="21.16 442.44 25.92 441.08 24.56 439.04 32.71 442.44 21.16 442.44 21.16 442.44"/>
      <polygon class="cls-1" points="136.61 441.08 138.65 439.04 151.55 441.08 136.61 441.08 136.61 441.08"/>
      <path class="cls-7" d="m871.34,293.61c-3.59,22.38-15.6,41.47-31.04,57.81,5.49,15.46,19.28,25.78,24.35,41.63,5.38,16.85-1.12,33.61-8,46.63-16.47,22.74-39.98,26.85-66.39,23.51-16.76-3.4-32.86-14.41-37.87-31.87-1.38-6.48-3.16-12.97-3.73-19.82-12.22-.93-7.12,11.3-11.47,21.34-6.84,15.63-20.63,23.36-34.11,29.32-23.84,6.91-45.96,4.02-61.97-9.4-7.37-7.49-11.91-15.69-16.82-24.7-19.7,11.77-38.31,26.8-59.86,33.68-7.28,1.35-16.14,1.85-21.16-3.96-7.26-10.7-4.32-25.87-1.1-37.42-13.39,15.48-26.37,38.04-51.76,43.61-5.25.62-11.28.81-15.59-2.55-8.7-7.42-12.17-31.37-8.02-46.5-19.44,19.99-40.98,43.39-60.47,51.34-8.39.75-12.64-1.31-17.36-4.29-7.62-11.92-5.17-26.47-2.7-42.63-13.69,16.91-30.01,36.92-47.52,43.17-8.92,1.87-19.17,1.53-25-4.3-14.2-12.31-14.12-43.9-6.56-64.53,11.66-34.56,41.51-59.05,79.21-69.98,23.45-4,53.34-1.89,69.94,11.28-3.03,6.12-5.57,9.85-9.34,14.14-20.16-9.55-46.93-25.75-68.07-7.2-18.71,17.83-36.58,46.15-26.66,73.02,3.89,3.75,10.64,6,15.95,3.77,9.87-6.49,12.4-12.13,20.32-20.29,9.27-14.54,13.84-25.43,20.09-43.4,11.2,1.6,24,3.25,35.11,7.25-8.74,19.1-16.78,42.21-20.42,66.81.32,2.42,1.89,3.28,3.85,4.96,10.11-1.66,17.67-11.04,25.52-17.19,19.61-20.62,27.96-46.6,49.96-65.64,25.74-23.63,59.16-43.89,96.92-31.72,7.11,3.46,15.11,4.55,21.35,9.99-1,5.59-5.26,12.68-9.83,16.94-18.2-8.27-40.91-25.54-61.14-10.17-22.85,21.31-38.91,51.6-39.23,76.2,2.66,4.51,6.11,6.23,11.47,5.22,24.87-9.98,35.9-38.13,49.1-59.38,8.79,1.51,17.02,7.43,26.6,9.37-6.69,19.06-19.06,39.53-17.86,62.48,7.03,5.87,14.04,0,22.7-3.89,6.13-3,12.64-6.94,18.43-11.56-.55-7.25-1.54-13.91-1.23-22.67l15.57-8.18-.74,21.27c8.21-3.14,14.11-8.27,20.14-12.96l39.24-30.38c2.63-6.34.82-12.03,2.65-18.4l2.59-28.04c15.11-6.71,30.67-15.01,48.06-18.02,4.58,5.91-.66,14.11-4.37,21.55l-24.4,42.55c8.67,11.34,20.01,25.62,20.26,41.3,3.94-1.45,7.69-3.15,10.15-4.67l.21-15.87c4.92-2.64,9.58-6.27,14.9-8.9-.15,4.42-.72,9.65-.27,15.84,20.09-11.36,42.57-22.23,57.7-40.99,1.27-13.22,1.34-26.88,1.82-40.53,15.25-7.83,27.77-12.7,42.85-18.6,3.24-.69,6.39,1.03,5.06,4.6h0Z"/>
      <path class="cls-7" d="m382.85,201.3l-13.57,6.77c-21.51,11.59-25.16,17.94-37.85,32.35-17.39,24.69-28.02,45.42-40.63,72.57,26.78,4.15,52.22-10.64,68.59-30.56,12.43.84,28.11.27,40.97.31-3.24,5.6-8.38,13.88-12.45,18.24-17.75,23.91-45.38,38.34-75.33,44.52-13.37,3.15-25.86,3.92-39.97,5.03-20.37,32.64-38.75,63.77-60.4,90.21-34.88,45.41-112.29,71.44-153.75,57.45-23.24-7.33-48.69-24.74-50.62-58.03-.61-13.81,5.48-35.46,10.59-38.62,25.99.43,32.7.22,66.11,1.45l11.94.42c-15.05,5.1-27.96,21.89-32,37.52-2.24,11.34-2.06,24.45,6.48,33.18,6.57,7.46,16.19,6.99,26.23,7.34,46.24-10.58,78.39-80.05,109.3-124.79l6-10.85c-10.48.84-24.94,4.23-34.73,8.31-8.21,4.94-13.65,9.05-18.99,22.57l-25.13-18.01c12.59-38.14,60.24-43.46,96.96-47.8,21.78-36.62,42.4-74.88,79.07-100.53,22.97-13.27,57.72-17.37,85.32-13.59l-12.12,4.53h0Z"/>
      <path class="cls-7" d="m728.25,174.43c-33.77,11.68-69.01,19.7-105.74,24.04-50.82,5.06-110.23,2.98-159.45-3.16-67.14-6.96-128.44-16.87-195.89-24.94l-22.77-2.7c-36.67-3.18-67.74-10.75-90.85,2.92-18.88,12.82-24.73,31.53-21.52,54.96,2.46,10.13,12.1,21.72,22.9,23.31,6.34,2.63,13.68-.33,19.77-2.12-10.65,17.31-21.78,36.62-34.45,54.26-22.12.43-42.31-8.31-56.98-25.7-11.83-18.1-11.25-46.21-1.77-64.37,18.31-29.5,46.01-51.45,79.83-64.73,52.12-19.48,120-6.66,176.21-5.1,93.41,6.88,198.95,14.15,282.2,9.85,34.03-2.66,101.09-15.94,148.98-36.89l-40.48,60.38h0Z"/>
      <path class="cls-2" d="m821.72,436.95c-9.64,11.32-24.65,15.22-37.77,11.14-14.24-6.53-17.17-18.4-19.72-32.59l-.84-11.54c18.87-11,39.31-20.73,56.27-34.61-2.43,23.63,19.26,46.89,2.06,67.59h0Z"/>
      <path class="cls-2" d="m690.99,440.02c-9.88,8.16-21.01,10.44-35.19,6.41-10.89-2.56-15.52-15.81-18.4-25.56,19.01-15.01,38.8-29.19,57.41-44.22,4.95,21.59,10.45,46.18-3.82,63.37h0Z"/>
      <path class="cls-6" d="m865.74,286.34c-3.59,22.38-15.6,41.47-31.04,57.81,5.49,15.46,19.28,25.78,24.35,41.63,5.38,16.85-1.12,33.61-8,46.63-16.47,22.74-39.98,26.85-66.39,23.51-16.76-3.4-32.85-14.41-37.87-31.87-1.38-6.48-3.16-12.97-3.73-19.82-12.22-.93-7.12,11.3-11.47,21.34-6.84,15.63-20.64,23.36-34.11,29.32-23.84,6.91-45.96,4.02-61.97-9.4-7.37-7.49-11.91-15.69-16.82-24.7-19.7,11.77-38.31,26.8-59.86,33.68-7.28,1.35-16.14,1.85-21.16-3.95-7.26-10.7-4.32-25.87-1.1-37.42-13.39,15.48-26.37,38.04-51.76,43.61-5.25.62-11.28.81-15.59-2.55-8.7-7.42-12.17-31.37-8.02-46.5-19.44,19.99-40.98,43.39-60.47,51.34-8.39.75-12.64-1.31-17.36-4.29-7.62-11.92-5.17-26.47-2.7-42.63-13.69,16.91-30.01,36.92-47.52,43.17-8.92,1.87-19.17,1.53-25-4.3-14.2-12.31-14.12-43.9-6.56-64.54,11.66-34.56,41.51-59.04,79.21-69.98,23.45-4,53.34-1.89,69.94,11.28-3.03,6.12-5.57,9.85-9.33,14.14-20.17-9.55-46.93-25.75-68.07-7.2-18.71,17.84-36.58,46.15-26.66,73.02,3.89,3.75,10.64,6,15.94,3.77,9.87-6.49,12.4-12.13,20.32-20.29,9.27-14.54,13.84-25.43,20.09-43.4,11.2,1.6,24,3.25,35.11,7.25-8.74,19.1-16.78,42.21-20.42,66.81.32,2.42,1.9,3.28,3.85,4.96,10.11-1.66,17.67-11.04,25.52-17.19,19.61-20.62,27.96-46.6,49.96-65.64,25.74-23.63,59.16-43.89,96.92-31.72,7.11,3.46,15.11,4.55,21.35,9.99-1,5.59-5.27,12.68-9.84,16.94-18.2-8.27-40.91-25.54-61.14-10.17-22.85,21.31-38.91,51.6-39.23,76.2,2.66,4.51,6.11,6.23,11.47,5.22,24.87-9.98,35.9-38.13,49.1-59.38,8.79,1.51,17.02,7.43,26.6,9.37-6.69,19.06-19.06,39.52-17.86,62.48,7.03,5.87,14.04,0,22.7-3.89,6.13-3,12.64-6.93,18.43-11.55-.55-7.25-1.54-13.91-1.23-22.67l15.57-8.18-.74,21.28c8.21-3.14,14.11-8.27,20.14-12.96l39.24-30.38c2.63-6.34.82-12.03,2.65-18.39l2.59-28.04c15.1-6.71,30.67-15.01,48.05-18.02,4.58,5.91-.66,14.11-4.37,21.55l-24.4,42.55c8.67,11.34,20,25.62,20.26,41.3,3.94-1.45,7.69-3.15,10.15-4.67l.21-15.87c4.91-2.64,9.58-6.27,14.9-8.9-.15,4.41-.72,9.65-.27,15.84,20.09-11.36,42.58-22.23,57.7-40.99,1.26-13.22,1.34-26.88,1.82-40.53,15.25-7.83,27.77-12.69,42.85-18.6,3.24-.69,6.39,1.03,5.06,4.6h0Z"/>
      <path class="cls-6" d="m377.25,194.03l-13.57,6.77c-21.51,11.59-25.16,17.94-37.85,32.36-17.39,24.69-28.02,45.42-40.63,72.57,26.78,4.15,52.22-10.64,68.59-30.56,12.43.84,28.11.27,40.97.31-3.24,5.6-8.38,13.88-12.45,18.24-17.75,23.91-45.38,38.34-75.33,44.52-13.37,3.15-25.86,3.92-39.97,5.03-20.37,32.64-38.75,63.77-60.4,90.21-34.88,45.41-112.29,71.43-153.75,57.45-23.24-7.33-48.69-24.75-50.62-58.04-.61-13.81,5.48-35.46,10.59-38.62,25.99.43,32.7.22,66.11,1.45l11.94.42c-15.05,5.1-27.96,21.89-32,37.52-2.24,11.34-2.06,24.44,6.48,33.18,6.57,7.46,16.19,6.99,26.23,7.34,46.24-10.58,78.4-80.05,109.3-124.79l5.99-10.85c-10.48.84-24.94,4.23-34.73,8.31-8.21,4.94-13.65,9.05-18.99,22.57l-25.13-18.01c12.59-38.15,60.24-43.46,96.96-47.8,21.78-36.62,42.4-74.88,79.07-100.53,22.97-13.27,57.72-17.37,85.32-13.59l-12.12,4.53h0Z"/>
      <path class="cls-6" d="m722.65,167.16c-33.77,11.68-69.01,19.7-105.74,24.04-50.82,5.06-110.23,2.98-159.45-3.16-67.14-6.96-128.44-16.87-195.89-24.94l-22.77-2.7c-36.67-3.18-67.74-10.75-90.85,2.92-18.88,12.82-24.73,31.54-21.52,54.96,2.46,10.13,12.1,21.72,22.9,23.31,6.34,2.63,13.68-.33,19.77-2.12-10.65,17.31-21.78,36.62-34.45,54.26-22.12.43-42.31-8.31-56.98-25.7-11.83-18.1-11.25-46.21-1.77-64.37,18.31-29.5,46.01-51.45,79.83-64.73,52.13-19.48,120-6.66,176.22-5.1,93.41,6.88,198.95,14.15,282.2,9.85,34.03-2.66,101.09-15.94,148.98-36.89l-40.48,60.38h0Z"/>
      <path class="cls-3" d="m816.12,429.68c-9.64,11.32-24.65,15.22-37.77,11.14-14.24-6.53-17.17-18.4-19.72-32.59l-.84-11.54c18.87-11,39.31-20.73,56.27-34.61-2.43,23.63,19.26,46.89,2.06,67.59h0Z"/>
      <path class="cls-3" d="m685.39,432.75c-9.88,8.16-21.01,10.44-35.19,6.41-10.89-2.56-15.52-15.82-18.4-25.56,19.01-15.01,38.8-29.19,57.41-44.21,4.95,21.59,10.45,46.18-3.82,63.37h0Z"/>
      <path class="cls-5" d="m865.74,286.34c-3.59,22.38-15.6,41.47-31.04,57.81,5.49,15.46,19.28,25.78,24.35,41.63,5.38,16.85-1.12,33.61-8,46.63-16.47,22.74-39.98,26.85-66.39,23.51-16.76-3.4-32.85-14.41-37.87-31.87-1.38-6.48-3.16-12.97-3.73-19.82-12.22-.93-7.12,11.3-11.47,21.34-6.84,15.63-20.64,23.36-34.11,29.32-23.84,6.91-45.96,4.02-61.97-9.4-7.37-7.49-11.91-15.69-16.82-24.7-19.7,11.77-38.31,26.8-59.86,33.68-7.28,1.35-16.14,1.85-21.16-3.95-7.26-10.7-4.32-25.87-1.1-37.42-13.39,15.48-26.37,38.04-51.76,43.61-5.25.62-11.28.81-15.59-2.55-8.7-7.42-12.17-31.37-8.02-46.5-19.44,19.99-40.98,43.39-60.47,51.34-8.39.75-12.64-1.31-17.36-4.29-7.62-11.92-5.17-26.47-2.7-42.63-13.69,16.91-30.01,36.92-47.52,43.17-8.92,1.87-19.17,1.53-25-4.3-14.2-12.31-14.12-43.9-6.56-64.54,11.66-34.56,41.51-59.04,79.21-69.98,23.45-4,53.34-1.89,69.94,11.28-3.03,6.12-5.57,9.85-9.33,14.14-20.17-9.55-46.93-25.75-68.07-7.2-18.71,17.84-36.58,46.15-26.66,73.02,3.89,3.75,10.64,6,15.94,3.77,9.87-6.49,12.4-12.13,20.32-20.29,9.27-14.54,13.84-25.43,20.09-43.4,11.2,1.6,24,3.25,35.11,7.25-8.74,19.1-16.78,42.21-20.42,66.81.32,2.42,1.9,3.28,3.85,4.96,10.11-1.66,17.67-11.04,25.52-17.19,19.61-20.62,27.96-46.6,49.96-65.64,25.74-23.63,59.16-43.89,96.92-31.72,7.11,3.46,15.11,4.55,21.35,9.99-1,5.59-5.27,12.68-9.84,16.94-18.2-8.27-40.91-25.54-61.14-10.17-22.85,21.31-38.91,51.6-39.23,76.2,2.66,4.51,6.11,6.23,11.47,5.22,24.87-9.98,35.9-38.13,49.1-59.38,8.79,1.51,17.02,7.43,26.6,9.37-6.69,19.06-19.06,39.52-17.86,62.48,7.03,5.87,14.04,0,22.7-3.89,6.13-3,12.64-6.93,18.43-11.55-.55-7.25-1.54-13.91-1.23-22.67l15.57-8.18-.74,21.28c8.21-3.14,14.11-8.27,20.14-12.96l39.24-30.38c2.63-6.34.82-12.03,2.65-18.39l2.59-28.04c15.1-6.71,30.67-15.01,48.05-18.02,4.58,5.91-.66,14.11-4.37,21.55l-24.4,42.55c8.67,11.34,20,25.62,20.26,41.3,3.94-1.45,7.69-3.15,10.15-4.67l.21-15.87c4.91-2.64,9.58-6.27,14.9-8.9-.15,4.41-.72,9.65-.27,15.84,20.09-11.36,42.58-22.23,57.7-40.99,1.26-13.22,1.34-26.88,1.82-40.53,15.25-7.83,27.77-12.69,42.85-18.6,3.24-.69,6.39,1.03,5.06,4.6h0Z"/>
      <path class="cls-5" d="m377.25,194.03l-13.57,6.77c-21.51,11.59-25.16,17.94-37.85,32.36-17.39,24.69-28.02,45.42-40.63,72.57,26.78,4.15,52.22-10.64,68.59-30.56,12.43.84,28.11.27,40.97.31-3.24,5.6-8.38,13.88-12.45,18.24-17.75,23.91-45.38,38.34-75.33,44.52-13.37,3.15-25.86,3.92-39.97,5.03-20.37,32.64-38.75,63.77-60.4,90.21-34.88,45.41-112.29,71.43-153.75,57.45-23.24-7.33-48.69-24.75-50.62-58.04-.61-13.81,5.48-35.46,10.59-38.62,25.99.43,32.7.22,66.11,1.45l11.94.42c-15.05,5.1-27.96,21.89-32,37.52-2.24,11.34-2.06,24.44,6.48,33.18,6.57,7.46,16.19,6.99,26.23,7.34,46.24-10.58,78.4-80.05,109.3-124.79l5.99-10.85c-10.48.84-24.94,4.23-34.73,8.31-8.21,4.94-13.65,9.05-18.99,22.57l-25.13-18.01c12.59-38.15,60.24-43.46,96.96-47.8,21.78-36.62,42.4-74.88,79.07-100.53,22.97-13.27,57.72-17.37,85.32-13.59l-12.12,4.53h0Z"/>
      <path class="cls-5" d="m722.65,167.16c-33.77,11.68-69.01,19.7-105.74,24.04-50.82,5.06-110.23,2.98-159.45-3.16-67.14-6.96-128.44-16.87-195.89-24.94l-22.77-2.7c-36.67-3.18-67.74-10.75-90.85,2.92-18.88,12.82-24.73,31.54-21.52,54.96,2.46,10.13,12.1,21.72,22.9,23.31,6.34,2.63,13.68-.33,19.77-2.12-10.65,17.31-21.78,36.62-34.45,54.26-22.12.43-42.31-8.31-56.98-25.7-11.83-18.1-11.25-46.21-1.77-64.37,18.31-29.5,46.01-51.45,79.83-64.73,52.13-19.48,120-6.66,176.22-5.1,93.41,6.88,198.95,14.15,282.2,9.85,34.03-2.66,101.09-15.94,148.98-36.89l-40.48,60.38h0Z"/>
      <path class="cls-1" d="m816.12,429.68c-9.64,11.32-24.65,15.22-37.77,11.14-14.24-6.53-17.17-18.4-19.72-32.59l-.84-11.54c18.87-11,39.31-20.73,56.27-34.61-2.43,23.63,19.26,46.89,2.06,67.59h0Z"/>
      <path class="cls-1" d="m685.39,432.75c-9.88,8.16-21.01,10.44-35.19,6.41-10.89-2.56-15.52-15.82-18.4-25.56,19.01-15.01,38.8-29.19,57.41-44.21,4.95,21.59,10.45,46.18-3.82,63.37h0Z"/>
      <polygon class="cls-4" points="642.98 419.27 685.51 387.68 686.96 397.79 647.83 427.46 642.98 419.27 642.98 419.27"/>
      <polygon class="cls-4" points="766.37 403.74 808.05 377.63 809.5 387.74 768.37 413.46 766.37 403.74 766.37 403.74"/>
      <path class="cls-5" d="m489.65,8.81C475.17,2.73,464.11.08,453.21.08c-33.8,0-58.25,23.68-58.25,56.07,0,22.27,17.44,52.96,57.32,52.96,16.66,0,28.04-3.89,38.47-9.35v-16.67c-11.99,7.79-25.08,11.99-37.07,11.99-25.54,0-42.99-16.51-42.99-40.34s18.07-40.65,42.36-40.65c12.31,0,23.52,3.43,36.6,11.06V8.81h0Z"/>
      <path class="cls-5" d="m562.59,95.25c-3.12,2.34-5.92,3.74-7.32,3.74-1.71,0-2.65-.93-2.65-3.58v-35.98c0-15.89-11.21-23.05-25.39-23.05-10.12,0-17.76,3.12-23.21,9.5v15.11c6.7-7.94,14.49-11.53,22.12-11.53,8.41,0,12.62,3.58,12.62,12.3v3.74l-12.31,4.36c-11.21,4.05-23.83,8.26-23.83,22.12,0,9.03,6.85,17.13,17.13,17.13,6.39,0,12.77-2.34,18.85-7.16,1.24,4.98,4.52,7.16,10.59,7.16,4.36,0,7.01-1.25,13.4-5.45v-8.41h0Zm-23.83-1.71c-3.74,3.58-7.79,5.76-12.15,5.76-5.76,0-9.97-4.05-9.97-9.81,0-8.26,10.28-12.3,22.12-16.35v20.4h0Z"/>
      <path class="cls-5" d="m611.67,1.49c-12.15-3.43-20.09-.62-26.01,5.3-5.61,5.61-8.88,12.15-8.88,25.86v5.14h-9.81v12.46h9.81v57.47h13.86v-57.47h12.62v-12.46h-12.62v-6.7c0-10.75,3.58-17.29,14.8-17.29,2.49,0,3.89.31,6.23,1.25V1.49h0Z"/>
      <path class="cls-5" d="m673.05,87.46c-8.1,5.3-16.04,8.41-24.45,8.41-13.39,0-21.34-7.17-23.52-21.03h49.22c0-25.86-11.84-38.47-30.37-38.47s-32.71,14.33-32.71,35.51c0,19.31,12.15,37.23,33.95,37.23,11.84,0,19.47-2.65,27.88-8.25v-13.39h0Zm-47.66-21.81c1.87-11.06,8.25-17.29,18.85-17.29,9.81,0,15.89,6.7,16.35,17.29h-35.2Zm18.53-59.81l-10.43,22.9h8.57l17.45-22.9h-15.58Z"/>
    </g>
  </g>
</svg>